<svg xmlns="http://www.w3.org/2000/svg" viewBox="0 0 800 560" fill="none">
  <rect width="800" height="560" rx="36" fill="#F1E8DA"/>
  <circle cx="638" cy="112" r="74" fill="#DCE8DB"/>
  <rect x="86" y="88" width="628" height="396" rx="28" fill="#FBF7F0"/>
  <rect x="130" y="118" width="300" height="188" rx="22" fill="#E5EFE5"/>
  <rect x="154" y="144" width="252" height="140" rx="18" fill="#1E6A45"/>
  <rect x="184" y="180" width="188" height="18" rx="9" fill="#F7F2E8"/>
  <rect x="184" y="214" width="144" height="18" rx="9" fill="#E6D6B8"/>
  <rect x="452" y="136" width="212" height="112" rx="22" fill="#EFD8AE"/>
  <circle cx="510" cy="336" r="30" fill="#F2C9A5"/>
  <path d="M472 434V382C472 360 490 342 512 342C534 342 552 360 552 382V434H472Z" fill="#24533B"/>
  <circle cx="610" cy="336" r="30" fill="#F0C59A"/>
  <path d="M572 434V382C572 360 590 342 612 342C634 342 652 360 652 382V434H572Z" fill="#C8913F"/>
  <circle cx="326" cy="372" r="32" fill="#F5D0AA"/>
  <path d="M286 458V412C286 387 307 366 332 366H336C361 366 382 387 382 412V458H286Z" fill="#D58C57"/>
  <rect x="168" y="430" width="500" height="20" rx="10" fill="#D6C8A8"/>
  <path d="M504 144L530 172L566 132" stroke="#1E6A45" stroke-width="16" stroke-linecap="round" stroke-linejoin="round"/>
  <path d="M488 194H624" stroke="#9F7D47" stroke-width="14" stroke-linecap="round"/>
  <path d="M488 222H598" stroke="#9F7D47" stroke-width="14" stroke-linecap="round"/>
  <rect x="140" y="318" width="148" height="86" rx="20" fill="#DCE8DB"/>
  <rect x="160" y="340" width="108" height="16" rx="8" fill="#24533B"/>
  <rect x="160" y="370" width="78" height="16" rx="8" fill="#C8913F"/>
</svg>
