<svg xmlns="http://www.w3.org/2000/svg" viewBox="0 0 800 560" fill="none">
  <rect width="800" height="560" rx="36" fill="#F1E8DB"/>
  <rect x="84" y="88" width="632" height="392" rx="30" fill="#173828"/>
  <path d="M84 128C158 170 236 186 314 174C392 162 468 120 548 120C606 120 660 138 716 170V480H84V128Z" fill="#214C37"/>
  <path d="M154 134C196 112 252 98 314 108C376 118 430 152 494 160C558 168 622 150 686 118V194H154V134Z" fill="#C8913F"/>
  <rect x="178" y="194" width="444" height="200" rx="28" fill="#F7F2E8"/>
  <rect x="178" y="194" width="444" height="42" rx="20" fill="#E7D2A5"/>
  <circle cx="314" cy="286" r="32" fill="#F2C9A5"/>
  <path d="M274 388V338C274 313 295 292 320 292H324C349 292 370 313 370 338V388H274Z" fill="#24533B"/>
  <circle cx="492" cy="286" r="32" fill="#F5D0AA"/>
  <path d="M452 388V338C452 313 473 292 498 292H502C527 292 548 313 548 338V388H452Z" fill="#D58C57"/>
  <circle cx="140" cy="438" r="16" fill="#F7F2E8"/>
  <circle cx="200" cy="438" r="16" fill="#F7F2E8"/>
  <circle cx="260" cy="438" r="16" fill="#F7F2E8"/>
  <circle cx="540" cy="438" r="16" fill="#F7F2E8"/>
  <circle cx="600" cy="438" r="16" fill="#F7F2E8"/>
  <circle cx="660" cy="438" r="16" fill="#F7F2E8"/>
  <path d="M410 212C422 194 450 184 464 198C474 208 472 224 458 234C446 242 420 246 408 236C396 226 398 212 410 212Z" fill="#1E6A45"/>
  <path d="M386 236C398 218 426 208 440 222C450 232 448 248 434 258C422 266 396 270 384 260C372 250 374 236 386 236Z" fill="#1E6A45"/>
</svg>
