<svg xmlns="http://www.w3.org/2000/svg" viewBox="0 0 800 560" fill="none">
  <rect width="800" height="560" rx="36" fill="#F4EADB"/>
  <rect x="74" y="78" width="652" height="404" rx="28" fill="#FBF7F0"/>
  <circle cx="646" cy="140" r="72" fill="#E7D3A7"/>
  <rect x="136" y="184" width="196" height="168" rx="28" fill="#DDEADF"/>
  <rect x="124" y="334" width="224" height="36" rx="18" fill="#BFD3C0"/>
  <rect x="474" y="330" width="136" height="92" rx="22" fill="#DCE6D8"/>
  <rect x="466" y="316" width="152" height="26" rx="13" fill="#BFD3C0"/>
  <rect x="144" y="208" width="180" height="128" rx="20" fill="#1E6A45"/>
  <circle cx="222" cy="256" r="34" fill="#F5D0AA"/>
  <path d="M182 344V304C182 281 200 262 223 262H228C251 262 270 281 270 304V344H182Z" fill="#C68A4F"/>
  <path d="M310 326V266C310 238 333 215 361 215C389 215 412 238 412 266V326H310Z" fill="#24533B"/>
  <path d="M360 208C379 208 394 193 394 174C394 155 379 140 360 140C341 140 326 155 326 174C326 193 341 208 360 208Z" fill="#F2C9A5"/>
  <path d="M344 214C344 214 354 226 373 226C392 226 400 214 400 214C396 193 382 180 372 177H355C348 181 344 192 344 214Z" fill="#D8E4D6"/>
  <path d="M470 462C496 438 524 408 546 372" stroke="#1E6A45" stroke-width="12" stroke-linecap="round"/>
  <path d="M540 374C563 374 582 355 582 332C582 309 563 290 540 290C517 290 498 309 498 332C498 355 517 374 540 374Z" fill="#F0C59A"/>
  <path d="M506 454V400C506 376 526 356 550 356C574 356 594 376 594 400V454H506Z" fill="#D58C57"/>
  <rect x="102" y="430" width="596" height="24" rx="12" fill="#E8D8BA"/>
  <circle cx="594" cy="212" r="30" fill="#DCEADF"/>
  <path d="M594 202V222" stroke="#1E6A45" stroke-width="10" stroke-linecap="round"/>
  <path d="M584 212H604" stroke="#1E6A45" stroke-width="10" stroke-linecap="round"/>
</svg>
